<svg xmlns="http://www.w3.org/2000/svg" viewBox="1740.16 9737.684 2421.623 710.799">
  <defs>
    <style>
      .cls-1 {
        fill: #203664;
      }

      .cls-2 {
        fill: #14213d;
      }
    </style>
  </defs>
  <g id="Group_341" data-name="Group 341" transform="translate(1990)">
    <path id="Path_1234" data-name="Path 1234" class="cls-1" d="M1802,9990c128-70,391.333-120.667,628-120s532,86,858,76,720-88,810-128-46,588-46,588H1868C1882,10406,1802,9990,1802,9990Z" transform="translate(-1504.763 -159.34) rotate(3)"/>
    <path id="Path_1235" data-name="Path 1235" class="cls-2" d="M1802,9990c128-70,391.333-120.667,628-120s532,86,858,76,720-88,810-128-46,588-46,588H1868C1882,10406,1802,9990,1802,9990Z" transform="translate(-1957 -6)"/>
  </g>
</svg>
