<svg xmlns="http://www.w3.org/2000/svg" viewBox="7840.986 2216.539 2313.084 1382.5">
  <defs>
    <style>
      .cls-1 {
        fill: #f2f7fc;
      }
    </style>
  </defs>
  <path id="Subtraction_5" data-name="Subtraction 5" class="cls-1" d="M-6726.561,1382.5h-.049c-31.451,0-63.238-.534-94.478-1.586-29.886-1.006-60.063-2.513-89.692-4.478-28.261-1.874-56.767-4.215-84.726-6.957-26.573-2.605-53.348-5.641-79.58-9.022a2420.679,2420.679,0,0,1-263.233-48.482c-32.961-8.042-65.272-16.754-96.036-25.892-24.621-7.314-48.3-14.913-70.388-22.587-37.813-13.138-57.847-21.948-58.045-22.036l-16.165,12.388,5.166-560.388c-.047-.165-4.816-16.867-10.075-44.826-3.074-16.344-5.7-33.234-7.795-50.2-2.623-21.208-4.429-42.586-5.368-63.541-2.391-53.35.751-104.339,9.339-151.551,2.482-13.645,5.459-27.153,8.85-40.15,3.569-13.679,7.692-27.165,12.256-40.083,4.786-13.547,10.19-26.847,16.061-39.53a423.014,423.014,0,0,1,20.267-38.491c6.79-11.409,14.183-22.542,21.973-33.09a392.769,392.769,0,0,1,25.928-31.528,394.724,394.724,0,0,1,30.168-29.621,409.5,409.5,0,0,1,34.692-27.367,438.978,438.978,0,0,1,39.5-24.768,485.609,485.609,0,0,1,44.595-21.823c15.89-6.807,32.7-13.042,49.973-18.532,17.734-5.638,36.452-10.65,55.635-14.9,18.334-4.059,37.6-7.635,57.269-10.631,19.176-2.921,39.284-5.374,59.765-7.291,19.93-1.865,40.8-3.277,62.022-4.2C-7028.115.452-7006.569,0-6984.691,0c28.017,0,57.568.741,87.833,2.2,28.863,1.395,59.294,3.491,90.449,6.23,29.512,2.594,60.641,5.851,92.521,9.68,29.923,3.594,61.566,7.818,94.048,12.556,57.54,8.392,119.853,18.676,190.5,31.438,65.275,11.791,129.928,24.289,190.072,36.039,15.234,2.976,30.658,6,45.574,8.922l1.553.3c233.326,45.729,453.713,88.921,621.534,88.921,15.913,0,31.351-.4,45.886-1.174,14.928-.8,29.373-2.032,42.934-3.659a89.462,89.462,0,0,1,10.619-.646,81.021,81.021,0,0,1,17.641,1.922,80.9,80.9,0,0,1,16.6,5.686,92.66,92.66,0,0,1,15.588,9.326,117.329,117.329,0,0,1,14.6,12.844,169.559,169.559,0,0,1,19.909,25.3,270.369,270.369,0,0,1,17.861,32.389c5.547,11.775,10.894,24.921,15.892,39.073,4.909,13.9,9.621,29.155,14.005,45.354,4.3,15.89,8.4,33.128,12.2,51.234,3.721,17.76,7.244,36.84,10.471,56.711,6.267,38.587,11.678,81.734,16.082,128.243,4.224,44.61,7.635,93.5,10.138,145.324,2.394,49.568,4.021,103.127,4.835,159.188.777,53.446.837,110.586.176,169.833-.626,56.258-1.918,115.9-3.84,177.26a161.947,161.947,0,0,0-17.558-14.833,129.486,129.486,0,0,0-18.468-11.222,110.8,110.8,0,0,0-19.4-7.455,104.716,104.716,0,0,0-20.351-3.536c-29.032-2.124-58.194-3.2-86.675-3.2-18.32,0-36.924.444-55.294,1.319-17.645.841-35.719,2.11-53.721,3.772-33.522,3.1-67.826,7.607-104.871,13.788-31.714,5.292-65.088,11.727-105.028,20.253-35.5,7.577-71.411,15.784-109.433,24.474l-.053.012-.039.009c-43.292,9.894-88.058,20.124-136.011,30.285-54.387,11.524-104.727,21.2-153.9,29.579-28.491,4.856-57.306,9.392-85.644,13.482-30.516,4.405-61.641,8.461-92.511,12.056-32.846,3.825-66.551,7.262-100.179,10.214-35.491,3.115-72.045,5.792-108.648,7.956-28.756,1.7-57.851,2.986-86.474,3.821C-6670.954,1382.089-6698.98,1382.5-6726.561,1382.5Z" transform="translate(15438.786 2216.54)"/>
</svg>
