<svg xmlns="http://www.w3.org/2000/svg" viewBox="2559 10103 26 20.429">
  <defs>
    <style>
      .cls-1 {
        fill: #fff;
      }
    </style>
  </defs>
  <g id="black-back-closed-envelope-shape" transform="translate(2887 10081.987)">
    <g id="Group_319" data-name="Group 319" transform="translate(-328 21.013)">
      <path id="Path_1206" data-name="Path 1206" class="cls-1" d="M39.824,331.467a2.222,2.222,0,0,0,1.521-.574l-7.366-7.366-.51.367q-.827.609-1.342.95a8.269,8.269,0,0,1-1.371.7,4.178,4.178,0,0,1-1.6.355h-.029a4.177,4.177,0,0,1-1.6-.355,8.245,8.245,0,0,1-1.371-.7q-.515-.341-1.342-.95c-.154-.113-.324-.236-.508-.369l-7.368,7.368a2.222,2.222,0,0,0,1.522.574Z" transform="translate(-16.146 -311.039)"/>
      <path id="Path_1207" data-name="Path 1207" class="cls-1" d="M1.466,199.817A7.693,7.693,0,0,1,0,198.555v11.208l6.493-6.493Q4.544,201.91,1.466,199.817Z" transform="translate(0 -191.968)"/>
      <path id="Path_1208" data-name="Path 1208" class="cls-1" d="M418.348,199.817q-2.964,2.006-5.039,3.455l6.49,6.49V198.555A8.01,8.01,0,0,1,418.348,199.817Z" transform="translate(-393.799 -191.968)"/>
      <path id="Path_1209" data-name="Path 1209" class="cls-1" d="M23.684,59.013H2.327a2.072,2.072,0,0,0-1.719.754,2.927,2.927,0,0,0-.6,1.886,3.39,3.39,0,0,0,.8,1.981A7.2,7.2,0,0,0,2.5,65.31q.493.348,2.974,2.068C6.369,68,7.145,68.535,7.813,69c.569.4,1.059.74,1.464,1.024l.217.154.4.288q.472.341.783.551t.755.471a4.4,4.4,0,0,0,.834.392,2.309,2.309,0,0,0,.725.131h.029a2.309,2.309,0,0,0,.725-.131,4.391,4.391,0,0,0,.834-.392q.442-.261.755-.471t.783-.551l.4-.288.217-.155L18.2,69l5.322-3.7a6.9,6.9,0,0,0,1.77-1.784,3.839,3.839,0,0,0,.71-2.191,2.34,2.34,0,0,0-2.322-2.322Z" transform="translate(-0.006 -59.013)"/>
    </g>
  </g>
</svg>
