<?xml version="1.0" encoding="utf-8"?>
<!-- Generator: Adobe Illustrator 22.0.0, SVG Export Plug-In . SVG Version: 6.00 Build 0)  -->
<svg version="1.1" id="Layer_1" xmlns="http://www.w3.org/2000/svg" xmlns:xlink="http://www.w3.org/1999/xlink" x="0px" y="0px"
	 viewBox="0 0 1636.4 514.6" style="enable-background:new 0 0 1636.4 514.6;" xml:space="preserve">
<style type="text/css">
	.st0{fill:#CAD7E2;}
	.st1{fill:#597DBF;}
</style>
<path class="st0" d="M514.2,311.3l0.5,2.8c-2.3,0.4-4.7,0.7-7.1,1l-0.3-2.8C509.6,312.1,512,311.7,514.2,311.3z"/>
<path class="st0" d="M423.6,299.5c4.4,1.7,8.9,3.3,13.5,4.7l-0.8,2.7c-4.6-1.5-9.2-3.1-13.6-4.8L423.6,299.5z M464.7,310.7l-0.4,2.8
	c-4.7-0.8-9.5-1.7-14.2-2.8l0.6-2.8C455.4,309.1,460.1,310,464.7,310.7z M397.9,287.1c4,2.3,8.2,4.6,12.6,6.7l-1.2,2.5
	c-4.4-2.1-8.7-4.4-12.7-6.8L397.9,287.1z M493.1,313.1l0,2.8c-4.7,0-9.6-0.2-14.5-0.5l0.2-2.8C483.7,312.9,488.4,313.1,493.1,313.1z
	"/>
<path class="st0" d="M380.5,275.1c1.8,1.5,3.7,2.9,5.5,4.2l-1.7,2.3c-1.9-1.4-3.9-2.9-5.7-4.3L380.5,275.1z"/>
<path class="st0" d="M1281.2,311.3l0.5,2.8c-2.3,0.4-4.7,0.7-7.1,1l-0.3-2.8C1276.6,312.1,1279,311.7,1281.2,311.3z"/>
<path class="st0" d="M1190.6,299.5c4.4,1.7,8.9,3.3,13.5,4.7l-0.8,2.7c-4.6-1.5-9.2-3.1-13.6-4.8L1190.6,299.5z M1231.7,310.7
	l-0.4,2.8c-4.7-0.8-9.5-1.7-14.2-2.8l0.6-2.8C1222.4,309.1,1227.1,310,1231.7,310.7z M1164.9,287.1c4,2.3,8.2,4.6,12.6,6.7l-1.2,2.5
	c-4.4-2.1-8.7-4.4-12.7-6.8L1164.9,287.1z M1260.1,313.1l0,2.8c-4.7,0-9.6-0.2-14.5-0.5l0.2-2.8
	C1250.7,312.9,1255.4,313.1,1260.1,313.1z"/>
<path class="st0" d="M1147.5,275.1c1.8,1.5,3.7,2.9,5.5,4.2l-1.7,2.3c-1.9-1.4-3.9-2.9-5.7-4.3L1147.5,275.1z"/>
<path class="st0" d="M766.6,244l-1.6-2.3c1.9-1.3,3.9-2.7,6-4l1.5,2.4C770.4,241.4,768.5,242.7,766.6,244z"/>
<path class="st0" d="M853.2,215c-4.7,0.4-9.4,0.9-14.2,1.6l-0.4-2.8c4.8-0.7,9.6-1.3,14.3-1.7L853.2,215z M811.3,222.9l-0.8-2.7
	c4.6-1.4,9.3-2.6,14-3.7l0.6,2.8C820.4,220.3,815.8,221.5,811.3,222.9z M881.7,214.8c-4.6-0.3-9.4-0.6-14.2-0.5l0-2.8
	c4.9,0,9.8,0.1,14.4,0.5L881.7,214.8z M784.9,233.2l-1.2-2.5c4.2-2.1,8.7-4,13.2-5.8l1,2.6C793.3,229.3,789,231.2,784.9,233.2z"/>
<path class="st0" d="M902.7,218c-2.2-0.5-4.5-1-6.8-1.4l0.5-2.8c2.4,0.4,4.7,0.9,7,1.4L902.7,218z"/>
<g>
	<defs>
		<rect id="SVGID_1_" x="111.3" y="83" width="294" height="294"/>
	</defs>
	<clipPath id="SVGID_2_">
		<use xlink:href="#SVGID_1_"  style="overflow:visible;"/>
	</clipPath>
	<g style="clip-path:url(#SVGID_2_);">
		<image style="overflow:visible;" width="294" height="294" xlink:href="37DEEFED.png"  transform="matrix(1 0 0 1 111.3333 83)">
		</image>
	</g>
</g>
<path class="st1" d="M283.6,220.6c2,0,3.6-1.6,3.6-3.6v-0.3c0-3.5-2.2-6.6-5.4-7.5c-0.2,0-0.4-0.1-0.6-0.1c0,0,0,0,0,0
	c-0.4-0.1-0.7-0.3-0.9-0.7c-0.2-0.3-0.1-0.7,0-1.1c0.7-1.3,1-2.8,0.7-4.3c-0.4-2.8-2.7-5.1-5.6-5.4c-0.2,0-0.5,0-0.8,0
	c-1.7,0-3.2,0.6-4.5,1.7c-0.2,0.2-0.5,0.3-0.8,0.3c-0.1,0-0.3,0-0.4-0.1c-0.4-0.1-0.7-0.5-0.7-1c-0.8-6.3-6.2-11.1-12.6-11.1
	c-7,0-12.8,5.7-12.8,12.7c0,0.8,0.1,1.5,0.2,2.3c0.1,0.4,0,0.8-0.3,1.1c-0.3,0.2-0.6,0.4-0.9,0.4c-0.1,0-0.1,0-0.2,0
	c-0.9-0.2-1.6-0.3-2.2-0.3c-1.1,0-2.1,0.2-3.1,0.5c-4.4,1.5-7.5,5.8-7.5,10.7v2.1c0,2,1.6,3.6,3.6,3.6h18.3v-5.2h-6.7
	c-0.4,0-0.9-0.3-1.1-0.7v0c-0.2-0.5-0.1-1,0.3-1.3l13.9-13.9c0.2-0.2,0.5-0.3,0.8-0.3s0.6,0.1,0.8,0.4l13.9,13.9
	c0.3,0.3,0.4,0.8,0.2,1.3c-0.2,0.4-0.6,0.7-1.1,0.7h-6.9v5.2L283.6,220.6L283.6,220.6z M232.6,223c-2,0-3.6,1.6-3.6,3.6v2.9
	c0,2,1.6,3.6,3.6,3.6h18.3v-10L232.6,223L232.6,223z M283.6,233c2,0,3.6-1.6,3.6-3.6v-2.9c0-2-1.6-3.6-3.6-3.6h-18.5v10L283.6,233
	L283.6,233z M232.6,235.4c-2,0-3.6,1.6-3.6,3.6v2.9c0,2,1.6,3.6,3.6,3.6h18.3v-10H232.6z M283.6,245.4c2,0,3.6-1.6,3.6-3.6v-2.9
	c0-2-1.6-3.6-3.6-3.6h-18.5v10L283.6,245.4L283.6,245.4z M263.9,247.8c-0.7,0-1.2-0.5-1.2-1.2v-32.3c0-0.6,0.5-1.2,1.2-1.2h5.2
	l-11-11l-11,11h5c0.7,0,1.2,0.5,1.2,1.2v32.3c0,0.7-0.5,1.2-1.2,1.2h-19.5c-3.2,0-5.9-2.7-5.9-6v-2.9c0-1.9,0.9-3.7,2.4-4.8
	c-1.5-1.1-2.4-2.9-2.4-4.7v-2.9c0-1.9,0.9-3.7,2.4-4.8c-1.5-1.1-2.4-2.9-2.4-4.8v-2.1c0-6,3.7-11.2,9.1-12.9
	c1.3-0.4,2.6-0.6,3.8-0.6c0.3,0,0.7,0,1.1,0c0-0.4,0-0.8,0-1.2c0-8.3,6.8-15.1,15.1-15.1c6.8,0,12.9,4.7,14.6,11.3
	c1.3-0.7,2.8-1.1,4.3-1.1c0.4,0,0.8,0,1.2,0.1c3.9,0.5,7.1,3.5,7.7,7.4c0.2,1.6,0.1,3.1-0.4,4.5c3.9,1.4,6.5,5.2,6.5,9.6v0.3
	c0,1.9-0.9,3.7-2.4,4.8c1.5,1.1,2.4,2.9,2.4,4.8v2.9c0,1.9-0.9,3.6-2.4,4.7c1.5,1.1,2.4,2.9,2.4,4.8v2.9c0,3.3-2.7,6-6,6H263.9z"/>
<path class="st1" d="M287.5,217c0,2.1-1.7,3.9-3.8,3.9h-18.8v-5.7h7.1c0.4,0,0.7-0.3,0.9-0.6c0.2-0.4,0.1-0.8-0.2-1l-13.9-13.9
	c-0.3-0.4-1-0.4-1.3,0l-13.9,13.9c-0.3,0.3-0.3,0.6-0.2,1c0.2,0.3,0.5,0.6,0.9,0.6h7v5.7h-18.5c-2.1,0-3.8-1.8-3.8-3.9v-2.1
	c0-5.1,3.1-9.4,7.6-10.9c1.1-0.4,2.1-0.5,3.2-0.5c0.7,0,1.5,0.1,2.2,0.3c0.3,0,0.6,0,0.9-0.3c0.2-0.2,0.3-0.5,0.3-0.9
	c-0.2-0.8-0.2-1.6-0.2-2.4c0-7.2,5.9-13,13-13c6.5,0,12,4.9,12.9,11.3c0,0.4,0.3,0.7,0.6,0.8c0.3,0.2,0.7,0,1-0.2
	c1.5-1.4,3.4-2,5.4-1.8c3,0.4,5.3,2.7,5.8,5.7c0.2,1.6,0,3.1-0.8,4.4c-0.2,0.3-0.2,0.6,0,0.9c0.1,0.3,0.4,0.5,0.7,0.5
	c0.2,0,0.4,0,0.6,0.1c3.3,0.9,5.6,4.1,5.6,7.7L287.5,217L287.5,217z M287.5,226.5v2.9c0,2.1-1.7,3.8-3.8,3.8h-18.8v-10.5h18.8
	C285.7,222.7,287.5,224.4,287.5,226.5z M287.5,238.9v2.9c0,2.1-1.7,3.8-3.8,3.8h-18.8v-10.5h18.8
	C285.7,235.1,287.5,236.8,287.5,238.9z M251.1,233.2h-18.5c-2.1,0-3.8-1.7-3.8-3.8v-2.9c0-2.1,1.7-3.8,3.8-3.8h18.5V233.2z
	 M251.1,245.6h-18.5c-2.1,0-3.8-1.7-3.8-3.8v-2.9c0-2.1,1.7-3.8,3.8-3.8h18.5V245.6z M289.4,217v-0.3c0-4.3-2.7-8.1-6.6-9.4
	c0.6-1.5,0.7-3,0.5-4.6c-0.6-3.8-3.7-6.7-7.5-7.2c-2-0.3-4,0.2-5.7,1.2c-1.6-6.6-7.6-11.4-14.5-11.4c-8.2,0-14.9,6.7-14.9,14.9
	c0,0.5,0,1,0,1.5c-1.7-0.2-3.4,0-5.1,0.5c-5.3,1.8-8.9,6.8-8.9,12.7v2.1c0,2,1,3.8,2.6,4.8c-1.5,1-2.6,2.8-2.6,4.8v2.9
	c0,2,1,3.7,2.6,4.7c-1.5,1-2.6,2.8-2.6,4.8v2.9c0,3.2,2.6,5.7,5.7,5.7h19.5c0.5,0,1-0.4,1-1v0v-32.3c0-0.5-0.4-0.9-1-0.9h-5.6
	l11.6-11.6l11.6,11.6h-5.8c-0.5,0-1,0.4-1,0.9v32.3v0c0,0.5,0.4,1,1,1h19.7c3.1,0,5.7-2.5,5.7-5.7v-2.9c0-2-1-3.8-2.5-4.8
	c1.6-1,2.5-2.8,2.5-4.7v-2.9c0-2-1-3.8-2.5-4.8C288.3,220.7,289.4,219,289.4,217z"/>
<path class="st1" d="M234.3,229.2c-0.3,0-0.6-0.1-0.8-0.3c-0.2-0.3-0.4-0.6-0.4-0.9c0-0.3,0.1-0.6,0.4-0.8c0.2-0.2,0.5-0.3,0.8-0.3
	c0.3,0,0.6,0.1,0.8,0.4c0.2,0.2,0.3,0.5,0.3,0.8c0,0.4-0.2,0.6-0.3,0.9c0,0,0,0,0,0C234.8,229.1,234.5,229.2,234.3,229.2z"/>
<path class="st1" d="M234.3,228.9c0.2,0,0.5-0.1,0.7-0.3c0.2-0.2,0.3-0.4,0.3-0.7c0-0.2-0.1-0.5-0.3-0.6c-0.3-0.4-1-0.4-1.3,0
	c-0.2,0.2-0.3,0.4-0.3,0.6c0,0.3,0.1,0.5,0.3,0.7C233.8,228.8,234,228.9,234.3,228.9z"/>
<path class="st1" d="M240,229.2c-0.7,0-1.2-0.5-1.2-1.2c0-0.6,0.6-1.2,1.2-1.2c0.6,0,1.2,0.5,1.2,1.2
	C241.1,228.6,240.6,229.2,240,229.2z"/>
<path class="st1" d="M240,228.9c0.5,0,0.9-0.4,0.9-1c0-0.5-0.4-0.9-0.9-0.9c-0.5,0-1,0.4-1,0.9C239,228.5,239.4,228.9,240,228.9z"/>
<path class="st1" d="M245.6,229.2c-0.3,0-0.6-0.1-0.9-0.3c-0.2-0.3-0.3-0.5-0.3-0.9c0-0.2,0.1-0.6,0.3-0.8c0.2-0.2,0.5-0.3,0.8-0.3
	c0.3,0,0.6,0.1,0.8,0.3c0.2,0.2,0.4,0.5,0.4,0.8c0,0.3-0.1,0.6-0.3,0.9C246.2,229.1,245.9,229.2,245.6,229.2z"/>
<path class="st1" d="M245.6,228.9c0.2,0,0.5-0.1,0.6-0.3c0.2-0.2,0.3-0.4,0.3-0.7c0-0.2-0.1-0.5-0.3-0.6c-0.3-0.4-1-0.4-1.3,0
	c-0.2,0.2-0.3,0.4-0.3,0.6c0,0.3,0.1,0.5,0.3,0.7C245.1,228.8,245.4,228.9,245.6,228.9z"/>
<path class="st1" d="M234.3,241.6c-0.3,0-0.6-0.1-0.8-0.3c-0.2-0.3-0.3-0.5-0.3-0.9c0-0.3,0.1-0.6,0.3-0.8c0.2-0.2,0.5-0.3,0.8-0.3
	s0.6,0.1,0.8,0.3s0.3,0.5,0.3,0.8c0,0.4-0.2,0.6-0.3,0.9c0,0,0,0,0,0C234.8,241.4,234.5,241.6,234.3,241.6z"/>
<path class="st1" d="M234.3,241.3c0.2,0,0.5-0.1,0.7-0.3c0.2-0.2,0.3-0.4,0.3-0.7c0-0.2-0.1-0.5-0.3-0.6c-0.3-0.3-1-0.3-1.3,0
	c-0.2,0.2-0.3,0.4-0.3,0.6c0,0.3,0.1,0.5,0.3,0.7C233.8,241.2,234,241.3,234.3,241.3z"/>
<path class="st1" d="M240,241.6c-0.7,0-1.2-0.5-1.2-1.2c0-0.6,0.5-1.2,1.2-1.2c0.6,0,1.2,0.5,1.2,1.2
	C241.1,241,240.6,241.6,240,241.6z"/>
<path class="st1" d="M240,241.3c0.5,0,0.9-0.4,0.9-1c0-0.5-0.4-0.9-0.9-0.9c-0.5,0-1,0.4-1,0.9C239,240.9,239.4,241.3,240,241.3z"/>
<path class="st1" d="M245.6,241.6c-0.3,0-0.6-0.1-0.9-0.3c-0.2-0.3-0.3-0.5-0.3-0.9c0-0.3,0.1-0.6,0.3-0.8c0.2-0.2,0.5-0.3,0.8-0.3
	c0.3,0,0.6,0.1,0.8,0.3c0.2,0.2,0.4,0.5,0.4,0.8c0,0.3-0.1,0.6-0.3,0.9C246.2,241.4,245.9,241.6,245.6,241.6z"/>
<path class="st1" d="M245.6,241.3c0.2,0,0.5-0.1,0.6-0.3c0.2-0.2,0.3-0.4,0.3-0.7c0-0.2-0.1-0.5-0.3-0.6c-0.3-0.3-1-0.3-1.3,0
	c-0.2,0.2-0.3,0.4-0.3,0.6c0,0.3,0.1,0.5,0.3,0.7C245.1,241.2,245.4,241.3,245.6,241.3z"/>
<path class="st1" d="M276.5,229.2c-0.7,0-1.2-0.5-1.2-1.2c0-0.6,0.5-1.2,1.2-1.2h6.5c0.6,0,1.2,0.5,1.2,1.2c0,0.7-0.5,1.2-1.2,1.2
	H276.5z"/>
<path class="st1" d="M283.1,227h-6.5c-0.5,0-1,0.4-1,0.9c0,0.5,0.4,1,1,1h6.5c0.5,0,1-0.4,1-1C284,227.5,283.5,227,283.1,227z"/>
<path class="st1" d="M276.5,241.6c-0.6,0-1.2-0.6-1.2-1.2c0-0.6,0.5-1.2,1.2-1.2h6.5c0.6,0,1.2,0.5,1.2,1.2c0,0.7-0.5,1.2-1.2,1.2
	H276.5z"/>
<path class="st1" d="M283.1,239.4h-6.5c-0.5,0-1,0.4-1,0.9c0,0.5,0.4,1,1,1h6.5c0.5,0,1-0.4,1-1C284,239.9,283.5,239.4,283.1,239.4z
	"/>
<g>
	<defs>
		<rect id="SVGID_3_" x="877.3" y="83" width="294" height="294"/>
	</defs>
	<clipPath id="SVGID_4_">
		<use xlink:href="#SVGID_3_"  style="overflow:visible;"/>
	</clipPath>
	<g style="clip-path:url(#SVGID_4_);">
		<image style="overflow:visible;" width="294" height="294" xlink:href="37DEEFEF.png"  transform="matrix(1 0 0 1 877.3333 83)">
		</image>
	</g>
</g>
<path class="st1" d="M1008.3,209.4L994,219.8v-10.4H1008.3z M1032.2,222.2v3.6l-8.8-4.7c-0.2-0.1-0.4-0.1-0.6-0.1h-2.3v-11.1
	l15.4,11.1h-2.4C1032.7,221,1032.2,221.5,1032.2,222.2z M1024.2,209.4h14.3v10.4L1024.2,209.4z M1040.5,223c0,0,0.1-0.1,0.1-0.1
	c0,0,0-0.1,0-0.1c0-0.1,0.1-0.1,0.1-0.2c0,0,0-0.1,0-0.1c0,0,0,0,0-0.1c0,0,0-0.1,0-0.1v-9.3h14.2v8h-8.8c-0.7,0-1.2,0.5-1.2,1.2
	c0,0.7,0.5,1.2,1.2,1.2h8.8v8h-44.3v-8h11.7l10.4,5.5c0,0,0,0,0,0c0.1,0.1,0.3,0.1,0.5,0.1c0.2,0,0.4-0.1,0.6-0.2
	c0.4-0.2,0.6-0.6,0.6-1v-4.4h5c0.2,0,0.3-0.1,0.4-0.1l0.1,0c0,0,0.1,0,0.1-0.1c0,0,0,0,0,0C1040.4,223.2,1040.5,223.1,1040.5,223z
	 M1038.4,190.7V201h-14.3L1038.4,190.7z M1035.8,189.5l-15.4,11.1v-11.1H1035.8z M1014.5,202.3v-12.7h3.5v12.7
	c0,0.7,0.6,1.2,1.2,1.2h19.2v3.5h-19.2c-0.7,0-1.2,0.5-1.2,1.2V221h-3.5v-12.8c0-0.6-0.5-1.2-1.2-1.2H994v-3.5h19.2
	C1013.9,203.5,1014.5,202.9,1014.5,202.3z M994,201v-10.3l14.3,10.3H994z M996.6,189.5h15.4v11.1L996.6,189.5z M1012,209.9V221
	h-15.4L1012,209.9z M1025.8,242.1l-8.9,4.7v-3.6c0-0.7-0.6-1.2-1.2-1.2h-5v-8h44.3v8h-28.7C1026.2,242,1026,242,1025.8,242.1z
	 M1056.3,210.5h-15.5v-22.3c0,0,0-0.1,0-0.1c0,0,0,0,0,0s0,0,0-0.1c0-0.1,0-0.1-0.1-0.2v0c0-0.1,0-0.1-0.1-0.2c0,0,0,0-0.1-0.1
	s0,0,0,0c0,0-0.1-0.1-0.1-0.1c0,0-0.1-0.1-0.2-0.1c-0.1-0.1-0.2-0.1-0.3-0.1c0,0,0,0,0,0c0,0-0.1,0-0.2,0h-47.1
	c-0.1,0-0.1,0-0.2,0.1h0c-0.1,0-0.2,0-0.3,0.1c0,0-0.1,0-0.1,0.1c-0.1,0.1-0.2,0.1-0.2,0.2c0,0,0,0.1-0.1,0.1c0,0,0,0.1,0,0.1
	c0,0.1,0,0.1,0,0.1v0c0,0,0,0.1-0.1,0.1c0,0,0,0,0,0c0,0,0,0,0,0.1v34.1c0,0,0,0,0,0.1c0,0,0,0.1,0,0.1c0,0.1,0,0.1,0,0.2v0
	c0,0,0,0.1,0.1,0.1c0,0,0,0.1,0,0.1c0,0,0.1,0.1,0.1,0.1c0.1,0.1,0.2,0.2,0.3,0.2c0,0,0.1,0.1,0.1,0.1l0,0c0.1,0,0.2,0.1,0.4,0.1
	h15.5v19.7c0,0.7,0.6,1.2,1.2,1.2h5v4.4c0,0.4,0.2,0.8,0.6,1.1c0,0,0,0,0.1,0c0.1,0,0.3,0.1,0.6,0.1c0.2,0,0.4-0.1,0.5-0.1
	c0,0,0,0,0,0l10.4-5.5h29.6c0.7,0,1.2-0.6,1.2-1.2v-31.5C1057.6,211,1057,210.5,1056.3,210.5z"/>
<g>
	<defs>
		<rect id="SVGID_5_" x="494.3" y="138" width="294" height="294"/>
	</defs>
	<clipPath id="SVGID_6_">
		<use xlink:href="#SVGID_5_"  style="overflow:visible;"/>
	</clipPath>
	<g style="clip-path:url(#SVGID_6_);">
		<image style="overflow:visible;" width="294" height="294" xlink:href="37DEEFEA.png"  transform="matrix(1 0 0 1 494.3333 138)">
		</image>
	</g>
</g>
<path class="st1" d="M629.2,247.5c-4.2,0-7.6,3.4-7.6,7.6c0,0.7,0.1,1.3,0.2,1.9c0.1,0.4,0,0.7-0.2,1c-0.2,0.3-0.6,0.5-0.9,0.5
	c-5.5,0.3-9.9,4.9-9.9,10.4c0,4.6,2.9,8.5,7.1,9.9c1.1-5.4,5.8-9.4,11.3-9.4c0.3,0,0.6,0,0.9,0c0-0.3,0-0.6,0-0.9
	c0-7.5,6.1-13.6,13.6-13.6c0.9,0,1.8,0.1,2.9,0.3c-0.5-2.8-2.9-4.9-5.7-4.9c-1.1,0-2.3,0.4-3.3,1.1c-0.2,0.2-0.5,0.2-0.7,0.2
	c-0.1,0-0.2,0-0.3,0c-0.3-0.1-0.6-0.3-0.8-0.6C634.4,248.8,631.9,247.5,629.2,247.5z M665,292.7c-0.7,0-1.2-0.5-1.2-1.2
	c0-0.7,0.6-1.2,1.2-1.2c3.8,0,6.9-3.1,6.9-6.9c0-3.3-2.3-6.1-5.6-6.8c-0.4-0.1-0.7-0.3-0.9-0.6v0c-0.2-0.4-0.1-0.8,0.1-1.1
	c0.5-0.9,0.7-1.8,0.7-2.8c0-3.1-2.6-5.6-5.7-5.6c-1.4,0-2.8,0.5-3.8,1.4c-0.2,0.2-0.5,0.4-0.8,0.4c-0.1,0-0.3,0-0.4-0.1c0,0,0,0,0,0
	c-0.5-0.2-0.7-0.6-0.8-1c-0.7-5.5-5.5-9.7-11.1-9.7c-6.1,0-11.1,5-11.1,11.2c0,0.7,0.1,1.4,0.2,2.1c0.1,0.4-0.1,0.8-0.4,1.1
	c-0.2,0.2-0.5,0.3-0.8,0.3c-0.1,0-0.2,0-0.3,0c-0.6-0.1-1.3-0.2-1.9-0.2c-5.1,0-9.2,4.1-9.2,9.2c0,5.1,4.1,9.2,9.2,9.2
	c0.7,0,1.2,0.6,1.2,1.2c0,0.7-0.5,1.2-1.2,1.2c-6.3,0-11.5-5.1-11.7-11.4c-5.5-1.6-9.4-6.7-9.4-12.4c0-6.3,4.6-11.7,10.9-12.7
	c0-0.4-0.1-0.7-0.1-1.1c0-5.6,4.5-10.1,10.1-10.1c3.1,0,6,1.4,8,3.9c1.1-0.6,2.3-0.9,3.7-0.9c4.5,0,8.2,3.6,8.3,8.1
	c3.7,1.6,6.6,4.9,7.7,8.8c1.2-0.6,2.5-0.9,3.8-0.9c4.5,0,8.1,3.6,8.1,8.1c0,0.9-0.1,1.8-0.4,2.6c3.7,1.4,6.1,4.8,6.1,8.7
	C674.3,288.6,670.1,292.7,665,292.7z"/>
<path class="st1" d="M630.3,268.6c0,0.3,0,0.7,0.1,1.1c-6-0.6-11.2,3.7-12.3,9.4c-4.4-1.4-7.5-5.5-7.5-10.2
	c0-5.6,4.4-10.3,10.1-10.6c0.3,0,0.6-0.2,0.7-0.4c0.2-0.2,0.2-0.5,0.2-0.8c-0.2-0.6-0.2-1.3-0.2-1.9c0-4.3,3.5-7.9,7.8-7.9
	c2.8,0,5.3,1.4,6.8,3.8c0.1,0.2,0.4,0.4,0.6,0.5c0.3,0.1,0.5,0,0.8-0.2c1-0.7,2.2-1.1,3.5-1.1c3.1,0,5.6,2.4,6,5.4
	c-1-0.2-2.1-0.4-3.2-0.4C636.3,255.2,630.3,261.2,630.3,268.6z M667.9,274.8c0.3-0.9,0.5-1.8,0.5-2.8c0-4.3-3.5-7.9-7.9-7.9
	c-1.4,0-2.7,0.4-3.9,1.1c-1.1-4-4-7.4-7.8-9c0-4.4-3.6-8-8-8c-1.3,0-2.6,0.3-3.7,0.9c-1.9-2.6-4.7-4-7.9-4c-5.4,0-9.9,4.5-9.9,9.9
	c0,0.5,0,0.9,0.1,1.3c-6.2,0.9-10.9,6.2-10.9,12.5c0,5.7,3.9,10.8,9.4,12.2c0,6.3,5.1,11.4,11.4,11.4c0.6,0,1-0.4,1-1
	c0-0.5-0.4-1-1-1c-5.2,0-9.4-4.2-9.4-9.5c0-5.2,4.2-9.4,9.4-9.4c0.6,0,1.3,0.1,1.9,0.2c0.3,0.1,0.7,0,0.9-0.2
	c0.2-0.2,0.3-0.6,0.3-0.9c-0.2-0.8-0.2-1.4-0.2-2.1c0-6.3,5.1-11.4,11.4-11.4c5.7,0,10.6,4.3,11.3,9.9c0,0.3,0.3,0.6,0.6,0.8
	c0.3,0.1,0.7,0,1-0.2c1.1-1,2.5-1.5,3.9-1.5c3.3,0,5.9,2.6,5.9,5.9c0,1-0.3,2-0.8,2.9c-0.2,0.3-0.2,0.6-0.1,0.9
	c0.2,0.3,0.4,0.5,0.7,0.5c3.3,0.6,5.7,3.6,5.7,7c0,3.9-3.2,7.1-7.1,7.1c-0.6,0-1,0.5-1,1c0,0.6,0.4,1,1,1c5,0,9.1-4,9.1-9.1
	C674.1,279.5,671.6,276.1,667.9,274.8z"/>
<path class="st1" d="M645.7,298.7c0.4,0,0.9,0,1.3,0c0.4,0,0.9,0,1.3,0l0.6-4c0.1-0.5,0.4-0.9,0.8-1c0.4-0.1,0.8-0.3,1.1-0.5
	c0.2-0.1,0.3-0.1,0.5-0.1c0.3,0,0.5,0.1,0.8,0.3l3.2,2.4c0.8-0.6,1.3-1.2,1.8-1.8l-2.4-3.3c-0.3-0.3-0.3-0.9-0.1-1.2
	c0-0.1,0.1-0.2,0.1-0.2c0.1-0.3,0.3-0.6,0.3-0.9c0.2-0.4,0.5-0.7,1-0.8l4-0.6c0-0.5,0.1-0.9,0.1-1.3c0-0.4,0-0.9-0.1-1.3l-4-0.7
	c-0.5-0.1-0.8-0.4-1-0.8c-0.1-0.3-0.2-0.5-0.3-0.8c0-0.1-0.1-0.2-0.1-0.3c-0.2-0.4-0.2-0.9,0.1-1.3l2.3-3.3
	c-0.6-0.7-1.2-1.3-1.8-1.8l-3.3,2.4c-0.2,0.1-0.4,0.2-0.7,0.2c-0.2,0-0.4,0-0.6-0.2c-0.2-0.1-0.3-0.1-0.5-0.2
	c-0.2-0.1-0.4-0.2-0.6-0.3c-0.4-0.2-0.7-0.5-0.8-0.9l-0.6-4c-0.4,0-0.9-0.1-1.3-0.1c-0.4,0-0.9,0-1.3,0.1l-0.6,4
	c0,0.4-0.3,0.8-0.8,0.9c-0.3,0.1-0.5,0.2-0.8,0.3c-0.1,0-0.2,0.1-0.3,0.2c-0.2,0.1-0.4,0.1-0.6,0.1c-0.3,0-0.5-0.1-0.7-0.2l-3.3-2.4
	c-0.6,0.5-1.2,1.1-1.8,1.8l2.4,3.3c0.3,0.4,0.3,0.9,0.1,1.3c-0.1,0.2-0.2,0.5-0.3,0.7c0,0.1-0.1,0.3-0.2,0.4
	c-0.1,0.4-0.5,0.7-0.9,0.8l-4,0.7c0,0.4-0.1,0.8-0.1,1.3c0,0.4,0,0.9,0.1,1.3l4,0.6c0.5,0.1,0.9,0.4,0.9,0.9
	c0.1,0.2,0.5,1.1,0.5,1.1c0.2,0.4,0.2,0.9-0.1,1.2l-2.4,3.3c0.5,0.7,1.1,1.2,1.8,1.8l3.3-2.4c0,0,0,0,0,0c0.2-0.1,0.5-0.2,0.7-0.2
	c0.2,0,0.4,0,0.6,0.1c0.4,0.2,0.7,0.3,1.1,0.5c0.5,0.2,0.8,0.5,0.8,1L645.7,298.7z M647,301.2c-1,0-1.8-0.1-2.6-0.2
	c-0.5-0.1-0.9-0.5-1-1l-0.7-4.2l-3.5,2.5c-0.2,0.1-0.5,0.2-0.7,0.2c-0.3,0-0.5-0.1-0.7-0.2c-1.4-1-2.6-2.2-3.6-3.6
	c-0.3-0.5-0.3-1,0-1.4l2.5-3.5l-4.2-0.7c-0.5-0.1-0.9-0.5-1-1c-0.1-0.7-0.2-1.6-0.2-2.5c0-0.7,0.1-1.6,0.2-2.6c0.1-0.6,0.5-0.9,1-1
	l4.2-0.6c0,0,0,0,0,0l-2.5-3.4c-0.3-0.4-0.3-1,0-1.4c1-1.4,2.2-2.6,3.6-3.6c0.2-0.1,0.4-0.2,0.7-0.2s0.5,0.1,0.7,0.2l3.4,2.5h0
	l0.6-4.2c0.1-0.6,0.5-0.9,1-1c0.8-0.1,1.7-0.2,2.5-0.2s1.7,0.1,2.5,0.2c0.5,0.1,0.9,0.5,1,1l0.7,4.2l3.4-2.5
	c0.2-0.1,0.5-0.2,0.7-0.2s0.5,0.1,0.7,0.2c1.4,1.1,2.6,2.3,3.6,3.6c0.3,0.4,0.3,1,0,1.4l-2.5,3.4l0,0l4.2,0.6c0.5,0.1,0.9,0.5,1,1
	c0.1,0.8,0.2,1.6,0.2,2.6s-0.1,1.7-0.2,2.5c-0.1,0.5-0.5,0.9-1,1l-4.2,0.7l2.5,3.5c0.3,0.4,0.3,0.9,0,1.4c-0.9,1.4-2.1,2.6-3.6,3.6
	c-0.2,0.1-0.5,0.2-0.7,0.2c-0.3,0-0.5-0.1-0.7-0.2l-3.4-2.5l-0.7,4.2c-0.1,0.5-0.5,0.9-1,1C648.8,301.1,648,301.2,647,301.2z"/>
<path class="st1" d="M660.3,287l-4.2,0.6c-0.4,0.1-0.7,0.3-0.8,0.6c-0.1,0.4-0.3,0.8-0.5,1.2c-0.2,0.3-0.1,0.7,0.1,1l2.5,3.4
	c-0.6,0.8-1.3,1.5-2.1,2.1l-3.4-2.5c-0.3-0.2-0.7-0.3-1-0.1c-0.3,0.2-0.7,0.3-1.1,0.5c-0.3,0.1-0.6,0.4-0.7,0.8l-0.7,4.2
	c-1,0.1-2,0.1-2.9,0l-0.7-4.2c0-0.4-0.3-0.7-0.6-0.8c-0.4-0.1-0.8-0.3-1.1-0.5c-0.3-0.2-0.7-0.1-1.1,0.1l-3.4,2.5
	c-0.8-0.6-1.5-1.3-2.1-2.1l2.5-3.4c0.2-0.3,0.2-0.7,0-1c-0.2-0.4-0.3-0.8-0.5-1.1c-0.1-0.4-0.4-0.6-0.8-0.7l-4.2-0.6
	c-0.1-0.5-0.1-1-0.1-1.5c0-0.5,0-1,0.1-1.5l4.2-0.7c0.3-0.1,0.7-0.3,0.8-0.6c0.2-0.3,0.3-0.8,0.5-1.1c0.2-0.3,0.2-0.8,0-1.1
	l-2.4-3.4c0.6-0.8,1.3-1.5,2.1-2l3.4,2.5c0.3,0.2,0.7,0.2,1,0.1c0.4-0.2,0.8-0.3,1.1-0.5c0.3-0.1,0.6-0.4,0.6-0.8l0.7-4.2
	c1-0.1,2-0.1,2.9,0l0.7,4.2c0.1,0.3,0.3,0.6,0.7,0.8c0.3,0.2,0.7,0.3,1.1,0.5c0.3,0.2,0.7,0.2,1-0.1l3.4-2.5c0.8,0.6,1.5,1.3,2.1,2
	l-2.5,3.4c-0.2,0.3-0.3,0.7-0.1,1.1c0.2,0.4,0.3,0.8,0.5,1.1c0.1,0.3,0.4,0.6,0.8,0.6l4.2,0.7c0,0.5,0.1,1,0.1,1.5
	C660.4,286.1,660.4,286.5,660.3,287z M661.4,282.2l-4.3-0.6c0-0.1-0.1-0.2-0.1-0.3l2.6-3.5c0.2-0.3,0.2-0.8,0-1.2
	c-1-1.4-2.2-2.5-3.5-3.5c-0.3-0.2-0.8-0.2-1.2,0l-3.6,2.6c-0.1-0.1-0.2-0.1-0.2-0.1l-0.7-4.3c-0.1-0.4-0.4-0.8-0.8-0.8
	c-1.7-0.2-3.4-0.2-5,0c-0.4,0.1-0.7,0.4-0.8,0.8l-0.7,4.3c-0.1,0.1-0.2,0.1-0.3,0.1l-3.6-2.6c-0.3-0.2-0.8-0.2-1.1,0
	c-1.4,1-2.6,2.2-3.6,3.5c-0.2,0.3-0.2,0.8,0,1.2l2.6,3.5c0,0.1,0,0.2-0.1,0.3l-4.3,0.6c-0.4,0-0.7,0.4-0.8,0.8
	c-0.1,0.8-0.2,1.7-0.2,2.5s0.1,1.7,0.2,2.5c0.1,0.5,0.4,0.8,0.8,0.8l4.3,0.7c0.1,0.1,0.1,0.2,0.1,0.2l-2.6,3.6
	c-0.3,0.3-0.3,0.8,0,1.1c1,1.4,2.2,2.6,3.6,3.6c0.3,0.2,0.8,0.2,1.1,0l3.6-2.6c0.1,0,0.2,0,0.3,0.1l0.7,4.3c0.1,0.4,0.4,0.8,0.8,0.8
	c0.8,0.2,1.6,0.2,2.5,0.2c0.9,0,1.7-0.1,2.5-0.2c0.4-0.1,0.8-0.4,0.8-0.8l0.7-4.3c0.1-0.1,0.2-0.1,0.2-0.1l3.6,2.6
	c0.3,0.2,0.8,0.2,1.2,0c1.4-1,2.6-2.2,3.5-3.6c0.2-0.3,0.2-0.8,0-1.1l-2.6-3.6c0,0,0.1-0.2,0.1-0.2l4.3-0.7c0.4-0.1,0.8-0.4,0.8-0.8
	c0.2-0.8,0.2-1.6,0.2-2.5s0-1.6-0.2-2.5C662.1,282.7,661.8,282.3,661.4,282.2z"/>
<path class="st1" d="M647,282.7c-1.6,0-2.9,1.3-2.9,2.9c0,1.6,1.3,2.8,2.9,2.8c1.6,0,2.9-1.3,2.9-2.8
	C649.8,284,648.6,282.7,647,282.7z M647,290.9c-2.9,0-5.3-2.4-5.3-5.3s2.4-5.3,5.3-5.3c2.9,0,5.3,2.4,5.3,5.3S649.9,290.9,647,290.9
	z"/>
<path class="st1" d="M647,288.6c-1.7,0-3.1-1.4-3.1-3.1s1.4-3.1,3.1-3.1s3.1,1.4,3.1,3.1S648.7,288.6,647,288.6z M647,280.5
	c-2.8,0-5.1,2.2-5.1,5.1c0,2.8,2.3,5.1,5.1,5.1c2.8,0,5.1-2.3,5.1-5.1C652.1,282.8,649.8,280.5,647,280.5z"/>
<g>
	<defs>
		<rect id="SVGID_7_" x="1261.3" y="138" width="294" height="294"/>
	</defs>
	<clipPath id="SVGID_8_">
		<use xlink:href="#SVGID_7_"  style="overflow:visible;"/>
	</clipPath>
	<g style="clip-path:url(#SVGID_8_);">
		
			<image style="overflow:visible;" width="294" height="294" xlink:href="37DEEFEB.png"  transform="matrix(1 0 0 1 1261.3334 138)">
		</image>
	</g>
</g>
<path class="st1" d="M1431.7,255c0.1,0,0.3,0.1,0.4,0.1h4.9l-3.5,3.4h-6.2v-6.2l3.5-3.5v5c0,0.1,0,0.3,0.1,0.5
	C1431.1,254.7,1431.4,254.9,1431.7,255L1431.7,255z M1409.6,299.5V293c4.9-0.3,9.5-2.3,12.9-5.8c3.5-3.5,5.6-8.1,5.8-13h6.5
	C1434.3,287.9,1423.2,299,1409.6,299.5z M1422.1,262.1l-13.8,13.8l-3.5-3.5c-0.2-0.2-0.5-0.3-0.9-0.3c-0.3,0-0.6,0.1-0.9,0.3
	c-0.2,0.2-0.4,0.6-0.4,1c0,0.3,0.1,0.6,0.4,0.8l4.4,4.4c0.3,0.2,0.6,0.4,0.9,0.4c0.3,0,0.7-0.1,0.9-0.4l14.3-14.4
	c1.6,2.7,2.5,5.8,2.5,8.9c0,9.7-7.9,17.6-17.6,17.6s-17.6-7.9-17.6-17.6s7.9-17.6,17.6-17.6C1413.8,255.4,1418.8,257.8,1422.1,262.1
	z M1388.3,274.3c0.3,4.9,2.4,9.5,5.8,13c3.5,3.5,8.1,5.5,12.9,5.8v6.5c-13.6-0.6-24.7-11.6-25.3-25.3L1388.3,274.3L1388.3,274.3z
	 M1407.1,246.5v6.5c-10.1,0.6-18.2,8.7-18.8,18.8h-6.5C1382.4,258.2,1393.5,247.1,1407.1,246.5z M1440.1,271.8h-2.8
	c-0.1-2.7-0.6-5.4-1.4-7.9c-0.2-0.5-0.7-0.9-1.2-0.9c-0.1,0-0.3,0-0.4,0.1c-0.6,0.2-1,1-0.8,1.6c0.8,2.3,1.2,4.7,1.3,7.1h-6.5
	c-0.2-3.4-1.3-6.7-3-9.4l1.3-1.3h7.4c0.3,0,0.6-0.1,0.9-0.4l6-5.9c0.3-0.4,0.4-0.9,0.2-1.4c-0.2-0.4-0.6-0.7-1.1-0.7h-5l3.6-3.6
	c0.5-0.5,0.5-1.2,0-1.8c-0.2-0.2-0.5-0.4-0.9-0.4c-0.3,0-0.6,0.1-0.9,0.4l-3.6,3.6v-4.9c0-0.5-0.3-0.9-0.8-1.2
	c-0.1-0.1-0.3-0.1-0.5-0.1c-0.3,0-0.6,0.1-0.9,0.4l-6,5.9c-0.2,0.2-0.3,0.6-0.3,0.9v7.4l-1,1c-3.5-4.3-8.7-7-14.3-7.3v-6.5
	c4.4,0.2,8.6,1.5,12.3,3.7c0.2,0.1,0.4,0.2,0.6,0.2c0.4,0,0.9-0.2,1.1-0.6c0.3-0.6,0.1-1.3-0.4-1.7c-4.1-2.5-8.8-3.9-13.6-4v-2.8
	c0-0.7-0.6-1.2-1.2-1.2s-1.2,0.6-1.2,1.2v2.8c-15,0.7-27.1,12.8-27.8,27.8h-2.8c-0.7,0-1.2,0.6-1.2,1.2s0.6,1.2,1.2,1.2h2.8
	c0.7,15,12.8,27.1,27.8,27.8v2.8c0,0.7,0.6,1.2,1.2,1.2c0.7,0,1.2-0.6,1.2-1.2V302c15-0.7,27.1-12.8,27.8-27.8h2.8
	c0.7,0,1.2-0.6,1.2-1.2C1441.4,272.3,1440.8,271.8,1440.1,271.8z"/>
<path class="st1" d="M1397.2,273c0,6.2,5,11.2,11.2,11.2c5.7,0,10.5-4.3,11.1-10c0.1-0.7-0.4-1.2-1.1-1.3c0,0-0.1,0-0.1,0
	c-0.7,0-1.2,0.5-1.2,1.1c-0.5,4.4-4.2,7.8-8.7,7.8c-4.8,0-8.7-3.9-8.7-8.7c0-4.8,3.9-8.7,8.7-8.7c1.7,0,3.3,0.5,4.7,1.4
	c0.2,0.1,0.4,0.2,0.7,0.2c0.4,0,0.8-0.2,1-0.6c0.4-0.6,0.2-1.3-0.4-1.7c-1.8-1.2-3.9-1.8-6-1.8
	C1402.2,261.8,1397.2,266.9,1397.2,273z"/>
</svg>
