<svg xmlns="http://www.w3.org/2000/svg" viewBox="3633.612 10238 34.415 30">
  <defs>
    <style>
      .cls-1 {
        fill: #fff;
      }
    </style>
  </defs>
  <path id="Path_1237" data-name="Path 1237" class="cls-1" d="M6.163,22.738h0a15.029,15.029,0,0,0,15,15.062,16.877,16.877,0,0,0,3.086-.309A20.318,20.318,0,0,1,30.36,37,6.453,6.453,0,0,0,31.9,37a7.35,7.35,0,0,0,5.123-11.6,4.3,4.3,0,0,1-.8-2.593h0a15.016,15.016,0,0,0-15-15,16.877,16.877,0,0,0-3.086.309,19.914,19.914,0,0,1-6.049.494,6.972,6.972,0,0,0-1.6,0,7.218,7.218,0,0,0-6.42,6.3,7.066,7.066,0,0,0,1.3,5.062A5.573,5.573,0,0,1,6.163,22.738Zm7.346,3.272a2.192,2.192,0,0,1,3.148.37,6.57,6.57,0,0,0,4.321,2.16c3.086.123,3.765-.8,3.827-1.6.123-.926-.741-1.667-4.136-2.469-2.9-.679-7.222-1.728-7.222-6.358,0-1.42.617-6.173,8.148-6.173a10.208,10.208,0,0,1,7.716,3.951,2.266,2.266,0,0,1-.494,3.148,2.212,2.212,0,0,1-3.148-.494,6.944,6.944,0,0,0-4.074-2.1c-1.852-.185-3.642.494-3.642,1.481,0,1.049.494,1.358,3.765,2.16,3.025.741,7.593,1.79,7.593,6.852a5.453,5.453,0,0,1-3.457,5.309,12.751,12.751,0,0,1-4.938.8,11.084,11.084,0,0,1-7.9-3.827A2.393,2.393,0,0,1,13.508,26.01Z" transform="translate(3629.606 10230.2)"/>
</svg>
