<svg xmlns="http://www.w3.org/2000/svg" viewBox="2190 107.551 180 35.949">
  <defs>
    <style>
      .cls-1 {
        fill: #2d2d3c;
      }

      .cls-2 {
        fill: #4885fa;
      }

      .cls-3 {
        fill: #f79227;
      }
    </style>
  </defs>
  <g id="Group_35" data-name="Group 35" transform="translate(2189.9 107.551)">
    <g id="Group_27" data-name="Group 27" transform="translate(0.1 9.186)">
      <path id="Path_31" data-name="Path 31" class="cls-1" d="M15.3,39.329,13.2,41.5c-1.74-1.689-3.454-2.559-5.143-2.559A3.936,3.936,0,0,0,5.32,39.994,3.175,3.175,0,0,0,4.194,42.45,3.558,3.558,0,0,0,5.141,44.8a12.941,12.941,0,0,0,3.94,2.687,14.468,14.468,0,0,1,4.964,3.659,6.576,6.576,0,0,1,1.279,3.991,7.242,7.242,0,0,1-2.2,5.322,7.463,7.463,0,0,1-5.5,2.175,9.607,9.607,0,0,1-4.2-.972A9.341,9.341,0,0,1,.1,59.03L2.172,56.7a7.148,7.148,0,0,0,5.322,2.84,4.786,4.786,0,0,0,3.352-1.254,3.921,3.921,0,0,0,1.382-2.968,3.8,3.8,0,0,0-.921-2.507A15.221,15.221,0,0,0,7.187,50.1,12.983,12.983,0,0,1,2.505,46.6,6.826,6.826,0,0,1,3.2,37.819,6.932,6.932,0,0,1,8.211,35.9C10.565,35.9,12.919,37.026,15.3,39.329Z" transform="translate(-0.1 -35.9)"/>
    </g>
    <g id="Group_28" data-name="Group 28" transform="translate(18.445 9.134)">
      <path id="Path_32" data-name="Path 32" class="cls-1" d="M71.8,36.391h3.275v4.4a12.869,12.869,0,0,1,3.505-3.557,10.014,10.014,0,0,1,5.22-1.51,8.6,8.6,0,0,1,3.505.716,7.636,7.636,0,0,1,2.712,1.919,10.3,10.3,0,0,1,1.817,3.454,12.28,12.28,0,0,1,4.094-4.554A9.6,9.6,0,0,1,101.2,35.7a8.21,8.21,0,0,1,4.657,1.33,7.826,7.826,0,0,1,2.994,3.71,20.245,20.245,0,0,1,.972,7.164V61.8H106.47V47.956a18.255,18.255,0,0,0-.588-5.629,5.1,5.1,0,0,0-2-2.482,6.082,6.082,0,0,0-3.377-.947,7.241,7.241,0,0,0-4.35,1.407,8.238,8.238,0,0,0-2.891,3.736q-.921,2.341-.921,7.829v9.979H89.071V48.826a22.513,22.513,0,0,0-.563-6.269,5.254,5.254,0,0,0-2-2.635,5.749,5.749,0,0,0-3.4-1,7.254,7.254,0,0,0-4.247,1.382,7.984,7.984,0,0,0-2.917,3.684A20.269,20.269,0,0,0,75,51.077v10.8H71.8Z" transform="translate(-71.8 -35.7)"/>
    </g>
    <g id="Group_29" data-name="Group 29" transform="translate(59.614 9.134)">
      <path id="Path_33" data-name="Path 33" class="cls-1" d="M259.233,36.391V61.849h-3.224V57.474a14.181,14.181,0,0,1-4.631,3.761,12.956,12.956,0,0,1-14.84-2.661A13.106,13.106,0,0,1,232.7,49.03a12.9,12.9,0,0,1,3.864-9.416,12.609,12.609,0,0,1,9.288-3.915,11.927,11.927,0,0,1,5.68,1.33,13.1,13.1,0,0,1,4.452,3.991V36.391Zm-13.1,2.507a9.911,9.911,0,0,0-8.725,5.143,10.345,10.345,0,0,0,.026,10.286,9.847,9.847,0,0,0,3.71,3.812,9.63,9.63,0,0,0,4.989,1.356,10.324,10.324,0,0,0,5.092-1.356,9.451,9.451,0,0,0,3.71-3.659,10.4,10.4,0,0,0,1.3-5.22,10.17,10.17,0,0,0-2.917-7.394A9.73,9.73,0,0,0,246.133,38.9Z" transform="translate(-232.7 -35.7)"/>
    </g>
    <g id="Group_30" data-name="Group 30" transform="translate(89.627 9.817)">
      <path id="Path_34" data-name="Path 34" class="cls-1" d="M360.337,38.376h2.789v2.84h-3.71a4.294,4.294,0,0,0-3.122,1.049,8.441,8.441,0,0,0-2.328,4.171c-.409,1.458-.614,4.375-.614,8.8V63.86H350V38.376h3.352v3.736a10.5,10.5,0,0,1,2.917-3.122C357.394,38.248,359.134,38.376,360.337,38.376Z" transform="translate(-350 -38.367)"/>
    </g>
    <g id="Group_31" data-name="Group 31" transform="translate(115.162)">
      <path id="Path_35" data-name="Path 35" class="cls-2" d="M449.8,0h6.4V35.284h-6.4Z" transform="translate(-449.8)"/>
    </g>
    <g id="Group_32" data-name="Group 32" transform="translate(123.529 9.16)">
      <path id="Path_36" data-name="Path 36" class="cls-2" d="M502.483,36.465h6.4V61.924h-6.4V59.237a12.6,12.6,0,0,1-3.761,2.559,10.674,10.674,0,0,1-4.068.793,11.334,11.334,0,0,1-8.546-3.838,13.364,13.364,0,0,1-3.608-9.518,13.642,13.642,0,0,1,3.48-9.672,11.12,11.12,0,0,1,8.469-3.761,10.5,10.5,0,0,1,4.3.87,11.551,11.551,0,0,1,3.71,2.61V36.465Zm-6.729,5.245a6.406,6.406,0,0,0-4.913,2.1,7.6,7.6,0,0,0-1.97,5.373,7.59,7.59,0,0,0,2,5.424,6.417,6.417,0,0,0,4.913,2.124,6.571,6.571,0,0,0,4.989-2.1,7.615,7.615,0,0,0,1.97-5.475,7.431,7.431,0,0,0-1.97-5.373A6.619,6.619,0,0,0,495.754,41.71Z" transform="translate(-482.5 -35.8)"/>
    </g>
    <g id="Group_33" data-name="Group 33" transform="translate(153.746)">
      <path id="Path_37" data-name="Path 37" class="cls-2" d="M619.79,18.883a8.361,8.361,0,0,1,.793,3.659,7.59,7.59,0,0,1-2,5.424,6.433,6.433,0,0,1-4.938,2.124,6.587,6.587,0,0,1-5.015-2.1,7.631,7.631,0,0,1-2-5.475,7.341,7.341,0,0,1,2-5.373,6.658,6.658,0,0,1,5.015-2.072h.128V9.237a10.817,10.817,0,0,0-3.1.793,11.93,11.93,0,0,0-3.736,2.61V0H600.6V35.284h6.345V32.6a12.6,12.6,0,0,0,3.761,2.559,10.8,10.8,0,0,0,4.094.793,11.334,11.334,0,0,0,8.546-3.838,13.364,13.364,0,0,0,3.608-9.518,14.567,14.567,0,0,0-1.817-7.369Z" transform="translate(-600.6)"/>
    </g>
    <path id="Path_38" data-name="Path 38" class="cls-3" d="M661.3,26.6V38.446L670,32.51Z" transform="translate(-492.023 -19.794)"/>
    <g id="Group_34" data-name="Group 34" transform="translate(105.516 0.384)">
      <path id="Path_39" data-name="Path 39" class="cls-1" d="M418.573,10.941h-3.2V1.5H412.1V36.4h3.275V13.781h3.2Z" transform="translate(-412.1 -1.5)"/>
    </g>
  </g>
</svg>
