<?xml version="1.0" encoding="utf-8"?>
<!-- Generator: Adobe Illustrator 22.0.0, SVG Export Plug-In . SVG Version: 6.00 Build 0)  -->
<svg version="1.1" id="Layer_1" xmlns="http://www.w3.org/2000/svg" xmlns:xlink="http://www.w3.org/1999/xlink" x="0px" y="0px"
	 viewBox="0 0 1190.3 1270.7" style="enable-background:new 0 0 1190.3 1270.7;" xml:space="preserve">
<style type="text/css">
	.st0{fill:#3B404A;}
	.st1{fill:url(#Path_41_1_);}
	.st2{fill:url(#Path_42_1_);}
	.st3{fill:url(#Path_43_1_);}
</style>
<g id="Group_36" transform="translate(12667.047 -81.72) rotate(-35)">
	<path id="Path_40" class="st0" d="M-9984.7-5680.4c0,0-292,144.3-542.6-41.9c-57.5-42.7-100.1-89.6-129.7-138.7
		c-75.7-125.9-66.6-267.6-7.2-397.3c19-41.1,42.1-80.2,68.9-116.7c81.3-111.4,70.2-199.8,44.6-283.5c-24.6-80.1-62.4-155.8-44.9-243
		c37.8-189.4,284.1-247.1,284.1-247.1l808.3,566.8l0,0l79.3,55.6l-153.4,251.2L-9984.7-5680.4z"/>
	
		<linearGradient id="Path_41_1_" gradientUnits="userSpaceOnUse" x1="-14193.666" y1="-6996.0732" x2="-14194.0654" y2="-6995.3203" gradientTransform="matrix(478.3779 818.6068 787.8307 6.5365 12291629 11658296)">
		<stop  offset="0" style="stop-color:#484E5A"/>
		<stop  offset="1" style="stop-color:#3B404A;stop-opacity:0"/>
	</linearGradient>
	<path id="Path_41" class="st1" d="M-9503.2-6581.9c-2.2,0.7-196.4,140.7-359.4,25.6c-163.7-115.5-271.6-30.2-476.8-32.9
		c-102.2-1.3-169.5-35.4-211.2-69.2c-24.6-80.1-62.4-155.8-44.9-243c37.8-189.6,284-247.3,284-247.3L-9503.2-6581.9z"/>
	
		<linearGradient id="Path_42_1_" gradientUnits="userSpaceOnUse" x1="-14206.7158" y1="-7001.666" x2="-14207.9268" y2="-7001.373" gradientTransform="matrix(96.5141 410.9008 414.0277 -145.7832 4260140 4810578.5)">
		<stop  offset="0" style="stop-color:#484E5A"/>
		<stop  offset="1" style="stop-color:#3B404A;stop-opacity:0"/>
	</linearGradient>
	<path id="Path_42" class="st2" d="M-10023-6299.6c80.6-107.5,265.4-112.3,344.3-42.7c97.1,85.8,6.6,258.7-59.9,335.2
		c-69,79.5-176.5,75.9-286-33.3C-10099-6114.9-10086.1-6215.3-10023-6299.6z"/>
	
		<linearGradient id="Path_43_1_" gradientUnits="userSpaceOnUse" x1="-14203.4658" y1="-6999.8301" x2="-14202.9951" y2="-7000.1597" gradientTransform="matrix(142.7956 463.9814 463.1387 -129.5173 5259555.5 5677358)">
		<stop  offset="0" style="stop-color:#484E5A;stop-opacity:0.6"/>
		<stop  offset="1" style="stop-color:#3B404A;stop-opacity:0"/>
	</linearGradient>
	<path id="Path_43" class="st3" d="M-10574.8-5842.8c-30.4,0.1-58.1-6-82.1-18.2c-75.7-125.9-66.6-267.6-7.2-397.3
		c35.3-20.9,78.3-33.2,125.1-36.9c148.9-11.6,288.6,139.4,288.3,256.4C-10251.3-5894.7-10462.2-5843.4-10574.8-5842.8z"/>
</g>
</svg>
