<svg xmlns="http://www.w3.org/2000/svg" viewBox="3708.363 10238 35.073 30">
  <defs>
    <style>
      .cls-1 {
        fill: #fff;
      }
    </style>
  </defs>
  <path id="Path_1238" data-name="Path 1238" class="cls-1" d="M9.637,37.248a89.848,89.848,0,0,0,11.9.752,89.848,89.848,0,0,0,11.9-.752A6.487,6.487,0,0,0,39.073,30.8V15.2a6.541,6.541,0,0,0-5.637-6.451A90.541,90.541,0,0,0,21.537,8a80.723,80.723,0,0,0-11.9.814A6.478,6.478,0,0,0,4,15.2V30.8A6.494,6.494,0,0,0,9.637,37.248Zm7.891-17.1a2.173,2.173,0,0,1,3.319-1.816l4.885,3.132a1.815,1.815,0,0,1,0,3.069l-4.885,3.132a2.154,2.154,0,0,1-3.319-1.816v-5.7Z" transform="translate(3704.363 10230)"/>
</svg>
