<svg xmlns="http://www.w3.org/2000/svg" width="36.906" height="49.209" viewBox="0 0 36.906 49.209"><defs><style>.a{opacity:0.74;}.b{fill:#4885fa;}.c{fill:#1647a4;}</style></defs><g class="a"><path class="b" d="M23.835,15.378a2.313,2.313,0,0,1-2.307-2.307V0H2.307A2.3,2.3,0,0,0,0,2.307V46.9a2.3,2.3,0,0,0,2.307,2.307H34.6A2.3,2.3,0,0,0,36.906,46.9V15.378ZM27.8,33.831H21.529V41.52a1.542,1.542,0,0,1-1.538,1.538H16.915a1.542,1.542,0,0,1-1.538-1.538V33.831H9.111A1.542,1.542,0,0,1,8.025,31.2L17.3,22.009a1.636,1.636,0,0,1,2.307,0l9.265,9.2A1.531,1.531,0,0,1,27.8,33.831Z"/><path class="c" d="M267.629,10.092,258.22.673A2.3,2.3,0,0,0,256.586,0H256V12.3h12.3v-.586A2.3,2.3,0,0,0,267.629,10.092Z" transform="translate(-231.396)"/></g></svg>