<svg xmlns="http://www.w3.org/2000/svg" width="69.35" height="48.545" viewBox="0 0 69.35 48.545"><defs><style>.a{fill:#4885fa;opacity:0.75;}</style></defs><path class="a" d="M58.254,53.087a10.415,10.415,0,0,0-9.709-14.152A10.35,10.35,0,0,0,42.77,40.69,17.339,17.339,0,0,0,10.4,49.338c0,.293.011.585.022.878a15.608,15.608,0,0,0,5.18,30.33H55.48a13.869,13.869,0,0,0,2.774-27.458ZM42.629,59.74H35.542V71.877a1.739,1.739,0,0,1-1.734,1.734h-5.2a1.739,1.739,0,0,1-1.734-1.734V59.74H19.787a1.731,1.731,0,0,1-1.224-2.958L29.983,45.361a1.74,1.74,0,0,1,2.449,0L43.853,56.782a1.733,1.733,0,0,1-1.224,2.958Z" transform="translate(0 -32)"/></svg>