<svg xmlns="http://www.w3.org/2000/svg" viewBox="3504.563 10238 14.946 30">
  <defs>
    <style>
      .cls-1 {
        fill: #fff;
      }
    </style>
  </defs>
  <path id="Path_1236" data-name="Path 1236" class="cls-1" d="M19.129,21.3h1.828a.347.347,0,0,1,.323.323V33.125A1.078,1.078,0,0,0,22.355,34.2h4.194a1.078,1.078,0,0,0,1.075-1.075V21.619a.347.347,0,0,1,.323-.323h3.011a1.054,1.054,0,0,0,1.075-.914l.7-4.194a1.135,1.135,0,0,0-1.075-1.29H28.108a.482.482,0,0,1-.484-.484V11.727A.965.965,0,0,1,28.7,10.652h3.172a1.078,1.078,0,0,0,1.075-1.075v-4.3A1.078,1.078,0,0,0,31.871,4.2H28.054c-6.989,0-6.828,5.645-6.828,6.452v3.925a.347.347,0,0,1-.323.323H19.075A1.078,1.078,0,0,0,18,15.974v4.194A1.172,1.172,0,0,0,19.129,21.3Z" transform="translate(3486.563 10233.8)"/>
</svg>
