<svg xmlns="http://www.w3.org/2000/svg" viewBox="3560.264 10238 32.563 30">
  <defs>
    <style>
      .cls-1 {
        fill: #fff;
      }
    </style>
  </defs>
  <g id="Group_339" data-name="Group 339" transform="translate(2736.264 5708)">
    <path id="Path_1171" data-name="Path 1171" class="cls-1" d="M8,42.662a.827.827,0,0,0,.813.813h5.813a.827.827,0,0,0,.813-.812V23.413a.827.827,0,0,0-.812-.812H8.813A.827.827,0,0,0,8,23.413Z" transform="translate(816 4516.525)"/>
    <path id="Path_1172" data-name="Path 1172" class="cls-1" d="M38.162,22.3a7.8,7.8,0,0,0-5.875,2.313A.409.409,0,0,1,31.6,24.3v-1a.827.827,0,0,0-.812-.812H24.913a.827.827,0,0,0-.812.813c.063,3.563,0,15.875,0,19.187a.827.827,0,0,0,.813.813H30.85a.827.827,0,0,0,.813-.812V32.05a4.655,4.655,0,0,1,.188-1.687A3.794,3.794,0,0,1,35.412,27.8c2.563,0,3.75,1.938,3.75,4.75v9.938a.827.827,0,0,0,.813.813h5.813a.827.827,0,0,0,.813-.812V31.737C46.537,25.3,42.85,22.3,38.162,22.3Z" transform="translate(809.963 4516.638)"/>
    <path id="Path_1173" data-name="Path 1173" class="cls-1" d="M11.688,14.813h0c2.375,0,3.813-1.5,3.813-3.375A3.438,3.438,0,0,0,11.75,8C9.438,8,8,9.438,8,11.375A3.419,3.419,0,0,0,11.688,14.813Z" transform="translate(816 4522)"/>
  </g>
</svg>
