<svg xmlns="http://www.w3.org/2000/svg" viewBox="2559 10018 25 24.983">
  <defs>
    <style>
      .cls-1 {
        fill: #fff;
      }
    </style>
  </defs>
  <g id="phone-receiver" transform="translate(2559 10017.812)">
    <g id="Group_320" data-name="Group 320" transform="translate(0 0.188)">
      <path id="Path_1210" data-name="Path 1210" class="cls-1" d="M24.988,19.9a1.208,1.208,0,0,1-.371,1.059L21.1,24.457a1.981,1.981,0,0,1-.622.45,2.57,2.57,0,0,1-.754.238q-.026,0-.159.013t-.344.013A12.2,12.2,0,0,1,17.591,25a12.361,12.361,0,0,1-2.752-.847,23.1,23.1,0,0,1-3.692-2.025,27.527,27.527,0,0,1-4.393-3.705,29,29,0,0,1-3.07-3.493,24.891,24.891,0,0,1-1.958-3.083A16.606,16.606,0,0,1,.613,9.279a13.62,13.62,0,0,1-.5-1.985A6.555,6.555,0,0,1,0,5.984q.026-.476.026-.529A2.572,2.572,0,0,1,.269,4.7a1.983,1.983,0,0,1,.45-.622L4.239.559A1.166,1.166,0,0,1,5.086.188a.987.987,0,0,1,.609.2,1.84,1.84,0,0,1,.45.49L8.976,6.249a1.288,1.288,0,0,1,.132.926,1.65,1.65,0,0,1-.45.847l-1.3,1.3a.441.441,0,0,0-.093.172.653.653,0,0,0-.04.2,4.779,4.779,0,0,0,.476,1.27,11.662,11.662,0,0,0,.979,1.548,17.191,17.191,0,0,0,1.879,2.1A17.53,17.53,0,0,0,12.682,16.5a12.227,12.227,0,0,0,1.548.992,4.115,4.115,0,0,0,.953.384l.331.066a.631.631,0,0,0,.172-.04.442.442,0,0,0,.172-.093l1.509-1.535a1.621,1.621,0,0,1,1.112-.423,1.383,1.383,0,0,1,.715.159h.026l5.108,3.017A1.331,1.331,0,0,1,24.988,19.9Z" transform="translate(0 -0.188)"/>
    </g>
  </g>
</svg>
